<?xml version="1.0" ?><svg enable-background="new 0 0 100 100" id="fb" version="1.1" viewBox="0 0 100 100" xml:space="preserve" xmlns="http://www.w3.org/2000/svg" xmlns:xlink="http://www.w3.org/1999/xlink"><path d="M50,5C25.147,5,5,25.147,5,50c0,24.853,20.147,45,45,45c1.361,0,2.704-0.071,4.034-0.189  c0-10.463,0-20.925,0-31.387h-10.66V51.639c3.554,0,7.107,0,10.66,0c0-3.928,0-7.856,0-11.784c0-7.147,5.848-12.994,12.994-12.994h0  h12.179v8.52v2.702h-8.016c-2.571,0-4.656,2.085-4.656,4.656v8.901c1.98,0,3.96,0,5.94,0c2.129,0,4.257,0,6.386,0  c-0.542,3.928-1.084,7.856-1.625,11.784H66.536V91.85C83.204,85.258,95,69.012,95,50C95,25.147,74.853,5,50,5z" fill="#3B5998"/></svg>